# xmcd
#
# Track frame offsets:
# 150
# 20437
# 41740
# 61542
# 81190
# 97637
# 102817
# 120107
# 139315
# 160327
# 177062
# 195690
# 216815
# 234835
# 258457
#
# Disc length: 3692 seconds
#
#
# Revision: 1
# Processed by: cddbd v1.5.1PL0 Copyright (c) Steve Scherf et al.
# Submitted via: FreeRIP 2.931 
#
DISCID=b40e6a0f
DTITLE=It's Not Over - Debelah Morgan
DYEAR=1998
DGENRE=R&B
TTITLE0=It's Not Over
TTITLE1=Yesterday
TTITLE2=Who Do You Love
TTITLE3=Stay
TTITLE4=I Love You
TTITLE5=Radio Skit
TTITLE6=Ain't No Mountain
TTITLE7=Fly Away
TTITLE8=Our Sweet Love
TTITLE9=Whatever
TTITLE10=Still In Love
TTITLE11=No One Compares
TTITLE12=Here Waiting
TTITLE13=Don't Hurry Back
TTITLE14=Tonight
EXTD=
EXTT0=
EXTT1=
EXTT2=
EXTT3=
EXTT4=
EXTT5=
EXTT6=
EXTT7=
EXTT8=
EXTT9=
EXTT10=
EXTT11=
EXTT12=
EXTT13=
EXTT14=
PLAYORDER=
